<?xml version="1.0"?>
<!-- Generated by SVGo -->
<svg width="800" height="600"
     xmlns="http://www.w3.org/2000/svg"
     xmlns:xlink="http://www.w3.org/1999/xlink">
<rect x="0" y="0" width="41" height="600" style="fill: rgb(184,112,9);stroke: #fff;" />
<text x="0" y="10" style="font-size:10px;padding:30px;text-anchor: start;" >analytics</text>
<rect x="0" y="0" width="41" height="187" style="fill: rgb(147,38,7);stroke: #fff;" />
<text x="0" y="10" style="font-size:10px;padding:30px;text-anchor: start;" >cluster</text>
<rect x="0" y="0" width="11" height="187" style="fill: rgb(217,179,113);stroke: #fff;" />
<text x="0" y="10" style="font-size:10px;padding:30px;text-anchor: start;" >AgglomerativeCluster</text>
<rect x="11" y="0" width="10" height="187" style="fill: rgb(217,179,113);stroke: #fff;" />
<text x="11" y="10" style="font-size:10px;padding:30px;text-anchor: start;" >CommunityStructure</text>
<rect x="21" y="0" width="18" height="187" style="fill: rgb(217,179,121);stroke: #fff;" />
<text x="21" y="10" style="font-size:10px;padding:30px;text-anchor: start;" >HierarchicalCluster</text>
<rect x="39" y="0" width="2" height="187" style="fill: rgb(217,179,105);stroke: #fff;" />
<text x="39" y="10" style="font-size:10px;padding:30px;text-anchor: start;" >MergeEdge</text>
<rect x="0" y="187" width="41" height="326" style="fill: rgb(147,38,145);stroke: #fff;" />
<text x="0" y="197" style="font-size:10px;padding:30px;text-anchor: start;" >graph</text>
<rect x="0" y="187" width="5" height="326" style="fill: rgb(208,161,72);stroke: #fff;" />
<text x="0" y="197" style="font-size:10px;padding:30px;text-anchor: start;" >BetweennessCentrality</text>
<rect x="5" y="187" width="9" height="326" style="fill: rgb(208,161,75);stroke: #fff;" />
<text x="5" y="197" style="font-size:10px;padding:30px;text-anchor: start;" >LinkDistance</text>
<rect x="14" y="187" width="12" height="326" style="fill: rgb(208,161,79);stroke: #fff;" />
<text x="14" y="197" style="font-size:10px;padding:30px;text-anchor: start;" >MaxFlowMinCut</text>
<rect x="27" y="187" width="9" height="326" style="fill: rgb(208,161,76);stroke: #fff;" />
<text x="27" y="197" style="font-size:10px;padding:30px;text-anchor: start;" >ShortestPaths</text>
<rect x="36" y="187" width="5" height="326" style="fill: rgb(208,161,72);stroke: #fff;" />
<text x="36" y="197" style="font-size:10px;padding:30px;text-anchor: start;" >SpanningTree</text>
<rect x="0" y="513" width="41" height="87" style="fill: rgb(147,38,163);stroke: #fff;" />
<text x="0" y="523" style="font-size:10px;padding:30px;text-anchor: start;" >optimization</text>
<rect x="0" y="513" width="41" height="87" style="fill: rgb(232,209,203);stroke: #fff;" />
<text x="0" y="523" style="font-size:10px;padding:30px;text-anchor: start;" >AspectRatioBanker</text>
<rect x="41" y="0" width="84" height="600" style="fill: rgb(184,112,52);stroke: #fff;" />
<text x="41" y="10" style="font-size:10px;padding:30px;text-anchor: start;" >animate</text>
<rect x="41" y="0" width="84" height="102" style="fill: rgb(174,92,30);stroke: #fff;" />
<text x="41" y="10" style="font-size:10px;padding:30px;text-anchor: start;" >Easing</text>
<rect x="41" y="102" width="84" height="35" style="fill: rgb(174,92,219);stroke: #fff;" />
<text x="41" y="112" style="font-size:10px;padding:30px;text-anchor: start;" >FunctionSequence</text>
<rect x="41" y="137" width="84" height="138" style="fill: rgb(174,92,66);stroke: #fff;" />
<text x="41" y="147" style="font-size:10px;padding:30px;text-anchor: start;" >interpolate</text>
<rect x="41" y="137" width="7" height="138" style="fill: rgb(138,20,48);stroke: #fff;" />
<text x="41" y="147" style="font-size:10px;padding:30px;text-anchor: start;" >ArrayInterpolator</text>
<rect x="48" y="137" width="7" height="138" style="fill: rgb(138,20,48);stroke: #fff;" />
<text x="48" y="147" style="font-size:10px;padding:30px;text-anchor: start;" >ColorInterpolator</text>
<rect x="56" y="137" width="5" height="138" style="fill: rgb(138,20,46);stroke: #fff;" />
<text x="56" y="147" style="font-size:10px;padding:30px;text-anchor: start;" >DateInterpolator</text>
<rect x="61" y="137" width="32" height="138" style="fill: rgb(138,20,72);stroke: #fff;" />
<text x="61" y="147" style="font-size:10px;padding:30px;text-anchor: start;" >Interpolator</text>
<rect x="93" y="137" width="8" height="138" style="fill: rgb(138,20,49);stroke: #fff;" />
<text x="93" y="147" style="font-size:10px;padding:30px;text-anchor: start;" >MatrixInterpolator</text>
<rect x="101" y="137" width="5" height="138" style="fill: rgb(138,20,46);stroke: #fff;" />
<text x="101" y="147" style="font-size:10px;padding:30px;text-anchor: start;" >NumberInterpolator</text>
<rect x="106" y="137" width="6" height="138" style="fill: rgb(138,20,46);stroke: #fff;" />
<text x="106" y="147" style="font-size:10px;padding:30px;text-anchor: start;" >ObjectInterpolator</text>
<rect x="111" y="137" width="6" height="138" style="fill: rgb(138,20,47);stroke: #fff;" />
<text x="111" y="147" style="font-size:10px;padding:30px;text-anchor: start;" >PointInterpolator</text>
<rect x="118" y="137" width="7" height="138" style="fill: rgb(138,20,48);stroke: #fff;" />
<text x="118" y="147" style="font-size:10px;padding:30px;text-anchor: start;" >RectangleInterpolator</text>
<rect x="41" y="276" width="84" height="6" style="fill: rgb(174,92,190);stroke: #fff;" />
<text x="41" y="286" style="font-size:10px;padding:30px;text-anchor: start;" >ISchedulable</text>
<rect x="41" y="282" width="84" height="31" style="fill: rgb(174,92,215);stroke: #fff;" />
<text x="41" y="292" style="font-size:10px;padding:30px;text-anchor: start;" >Parallel</text>
<rect x="41" y="313" width="84" height="3" style="fill: rgb(174,92,186);stroke: #fff;" />
<text x="41" y="323" style="font-size:10px;padding:30px;text-anchor: start;" >Pause</text>
<rect x="41" y="316" width="84" height="34" style="fill: rgb(174,92,217);stroke: #fff;" />
<text x="41" y="326" style="font-size:10px;padding:30px;text-anchor: start;" >Scheduler</text>
<rect x="41" y="349" width="84" height="33" style="fill: rgb(174,92,217);stroke: #fff;" />
<text x="41" y="359" style="font-size:10px;padding:30px;text-anchor: start;" >Sequence</text>
<rect x="41" y="382" width="84" height="55" style="fill: rgb(174,92,239);stroke: #fff;" />
<text x="41" y="392" style="font-size:10px;padding:30px;text-anchor: start;" >Transition</text>
<rect x="41" y="437" width="84" height="120" style="fill: rgb(174,92,47);stroke: #fff;" />
<text x="41" y="447" style="font-size:10px;padding:30px;text-anchor: start;" >Transitioner</text>
<rect x="41" y="557" width="84" height="7" style="fill: rgb(174,92,190);stroke: #fff;" />
<text x="41" y="567" style="font-size:10px;padding:30px;text-anchor: start;" >TransitionEvent</text>
<rect x="41" y="564" width="84" height="36" style="fill: rgb(174,92,220);stroke: #fff;" />
<text x="41" y="574" style="font-size:10px;padding:30px;text-anchor: start;" >Tween</text>
<rect x="124" y="0" width="25" height="600" style="fill: rgb(184,112,250);stroke: #fff;" />
<text x="124" y="10" style="font-size:10px;padding:30px;text-anchor: start;" >data</text>
<rect x="124" y="0" width="25" height="364" style="fill: rgb(147,38,183);stroke: #fff;" />
<text x="124" y="10" style="font-size:10px;padding:30px;text-anchor: start;" >converters</text>
<rect x="124" y="0" width="1" height="364" style="fill: rgb(235,214,173);stroke: #fff;" />
<text x="124" y="10" style="font-size:10px;padding:30px;text-anchor: start;" >Converters</text>
<rect x="125" y="0" width="6" height="364" style="fill: rgb(235,214,178);stroke: #fff;" />
<text x="125" y="10" style="font-size:10px;padding:30px;text-anchor: start;" >DelimitedTextConverter</text>
<rect x="131" y="0" width="13" height="364" style="fill: rgb(235,214,186);stroke: #fff;" />
<text x="131" y="10" style="font-size:10px;padding:30px;text-anchor: start;" >GraphMLConverter</text>
<rect x="144" y="0" width="2" height="364" style="fill: rgb(235,214,174);stroke: #fff;" />
<text x="144" y="10" style="font-size:10px;padding:30px;text-anchor: start;" >IDataConverter</text>
<rect x="146" y="0" width="3" height="364" style="fill: rgb(235,214,176);stroke: #fff;" />
<text x="146" y="10" style="font-size:10px;padding:30px;text-anchor: start;" >JSONConverter</text>
<rect x="124" y="364" width="25" height="35" style="fill: rgb(147,38,110);stroke: #fff;" />
<text x="124" y="374" style="font-size:10px;padding:30px;text-anchor: start;" >DataField</text>
<rect x="124" y="398" width="25" height="43" style="fill: rgb(147,38,118);stroke: #fff;" />
<text x="124" y="408" style="font-size:10px;padding:30px;text-anchor: start;" >DataSchema</text>
<rect x="124" y="441" width="25" height="12" style="fill: rgb(147,38,87);stroke: #fff;" />
<text x="124" y="451" style="font-size:10px;padding:30px;text-anchor: start;" >DataSet</text>
<rect x="124" y="453" width="25" height="66" style="fill: rgb(147,38,141);stroke: #fff;" />
<text x="124" y="463" style="font-size:10px;padding:30px;text-anchor: start;" >DataSource</text>
<rect x="124" y="519" width="25" height="15" style="fill: rgb(147,38,91);stroke: #fff;" />
<text x="124" y="529" style="font-size:10px;padding:30px;text-anchor: start;" >DataTable</text>
<rect x="124" y="534" width="25" height="66" style="fill: rgb(147,38,141);stroke: #fff;" />
<text x="124" y="544" style="font-size:10px;padding:30px;text-anchor: start;" >DataUtil</text>
<rect x="150" y="0" width="20" height="600" style="fill: rgb(184,112,245);stroke: #fff;" />
<text x="150" y="10" style="font-size:10px;padding:30px;text-anchor: start;" >display</text>
<rect x="150" y="0" width="20" height="219" style="fill: rgb(175,95,152);stroke: #fff;" />
<text x="150" y="10" style="font-size:10px;padding:30px;text-anchor: start;" >DirtySprite</text>
<rect x="150" y="219" width="20" height="43" style="fill: rgb(175,95,232);stroke: #fff;" />
<text x="150" y="229" style="font-size:10px;padding:30px;text-anchor: start;" >LineSprite</text>
<rect x="150" y="261" width="20" height="90" style="fill: rgb(175,95,23);stroke: #fff;" />
<text x="150" y="271" style="font-size:10px;padding:30px;text-anchor: start;" >RectSprite</text>
<rect x="150" y="351" width="20" height="249" style="fill: rgb(175,95,183);stroke: #fff;" />
<text x="150" y="361" style="font-size:10px;padding:30px;text-anchor: start;" >TextSprite</text>
<rect x="170" y="0" width="3" height="600" style="fill: rgb(184,112,228);stroke: #fff;" />
<text x="170" y="10" style="font-size:10px;padding:30px;text-anchor: start;" >flex</text>
<rect x="170" y="0" width="3" height="600" style="fill: rgb(5,10,108);stroke: #fff;" />
<text x="170" y="10" style="font-size:10px;padding:30px;text-anchor: start;" >FlareVis</text>
<rect x="174" y="0" width="25" height="600" style="fill: rgb(184,112,250);stroke: #fff;" />
<text x="174" y="10" style="font-size:10px;padding:30px;text-anchor: start;" >physics</text>
<rect x="174" y="0" width="25" height="22" style="fill: rgb(59,119,3);stroke: #fff;" />
<text x="174" y="10" style="font-size:10px;padding:30px;text-anchor: start;" >DragForce</text>
<rect x="174" y="22" width="25" height="27" style="fill: rgb(59,119,8);stroke: #fff;" />
<text x="174" y="32" style="font-size:10px;padding:30px;text-anchor: start;" >GravityForce</text>
<rect x="174" y="48" width="25" height="6" style="fill: rgb(59,119,244);stroke: #fff;" />
<text x="174" y="58" style="font-size:10px;padding:30px;text-anchor: start;" >IForce</text>
<rect x="174" y="55" width="25" height="210" style="fill: rgb(59,119,192);stroke: #fff;" />
<text x="174" y="65" style="font-size:10px;padding:30px;text-anchor: start;" >NBodyForce</text>
<rect x="174" y="265" width="25" height="57" style="fill: rgb(59,119,38);stroke: #fff;" />
<text x="174" y="275" style="font-size:10px;padding:30px;text-anchor: start;" >Particle</text>
<rect x="174" y="322" width="25" height="200" style="fill: rgb(59,119,182);stroke: #fff;" />
<text x="174" y="332" style="font-size:10px;padding:30px;text-anchor: start;" >Simulation</text>
<rect x="174" y="522" width="25" height="44" style="fill: rgb(59,119,26);stroke: #fff;" />
<text x="174" y="532" style="font-size:10px;padding:30px;text-anchor: start;" >Spring</text>
<rect x="174" y="566" width="25" height="34" style="fill: rgb(59,119,15);stroke: #fff;" />
<text x="174" y="576" style="font-size:10px;padding:30px;text-anchor: start;" >SpringForce</text>
<rect x="199" y="0" width="75" height="600" style="fill: rgb(184,112,44);stroke: #fff;" />
<text x="199" y="10" style="font-size:10px;padding:30px;text-anchor: start;" >query</text>
<rect x="199" y="0" width="75" height="11" style="fill: rgb(158,60,131);stroke: #fff;" />
<text x="199" y="10" style="font-size:10px;padding:30px;text-anchor: start;" >AggregateExpression</text>
<rect x="199" y="11" width="75" height="7" style="fill: rgb(158,60,127);stroke: #fff;" />
<text x="199" y="21" style="font-size:10px;padding:30px;text-anchor: start;" >And</text>
<rect x="199" y="18" width="75" height="26" style="fill: rgb(158,60,147);stroke: #fff;" />
<text x="199" y="28" style="font-size:10px;padding:30px;text-anchor: start;" >Arithmetic</text>
<rect x="199" y="44" width="75" height="6" style="fill: rgb(158,60,126);stroke: #fff;" />
<text x="199" y="54" style="font-size:10px;padding:30px;text-anchor: start;" >Average</text>
<rect x="199" y="50" width="75" height="19" style="fill: rgb(158,60,140);stroke: #fff;" />
<text x="199" y="60" style="font-size:10px;padding:30px;text-anchor: start;" >BinaryExpression</text>
<rect x="199" y="69" width="75" height="34" style="fill: rgb(158,60,155);stroke: #fff;" />
<text x="199" y="79" style="font-size:10px;padding:30px;text-anchor: start;" >Comparison</text>
<rect x="199" y="103" width="75" height="25" style="fill: rgb(158,60,145);stroke: #fff;" />
<text x="199" y="113" style="font-size:10px;padding:30px;text-anchor: start;" >CompositeExpression</text>
<rect x="199" y="128" width="75" height="5" style="fill: rgb(158,60,126);stroke: #fff;" />
<text x="199" y="138" style="font-size:10px;padding:30px;text-anchor: start;" >Count</text>
<rect x="199" y="133" width="75" height="28" style="fill: rgb(158,60,148);stroke: #fff;" />
<text x="199" y="143" style="font-size:10px;padding:30px;text-anchor: start;" >DateUtil</text>
<rect x="199" y="161" width="75" height="6" style="fill: rgb(158,60,127);stroke: #fff;" />
<text x="199" y="171" style="font-size:10px;padding:30px;text-anchor: start;" >Distinct</text>
<rect x="199" y="167" width="75" height="34" style="fill: rgb(158,60,155);stroke: #fff;" />
<text x="199" y="177" style="font-size:10px;padding:30px;text-anchor: start;" >Expression</text>
<rect x="199" y="201" width="75" height="24" style="fill: rgb(158,60,145);stroke: #fff;" />
<text x="199" y="211" style="font-size:10px;padding:30px;text-anchor: start;" >ExpressionIterator</text>
<rect x="199" y="225" width="75" height="22" style="fill: rgb(158,60,142);stroke: #fff;" />
<text x="199" y="235" style="font-size:10px;padding:30px;text-anchor: start;" >Fn</text>
<rect x="199" y="247" width="75" height="18" style="fill: rgb(158,60,139);stroke: #fff;" />
<text x="199" y="257" style="font-size:10px;padding:30px;text-anchor: start;" >If</text>
<rect x="199" y="265" width="75" height="14" style="fill: rgb(158,60,134);stroke: #fff;" />
<text x="199" y="275" style="font-size:10px;padding:30px;text-anchor: start;" >IsA</text>
<rect x="199" y="279" width="75" height="8" style="fill: rgb(158,60,129);stroke: #fff;" />
<text x="199" y="289" style="font-size:10px;padding:30px;text-anchor: start;" >Literal</text>
<rect x="199" y="287" width="75" height="25" style="fill: rgb(158,60,146);stroke: #fff;" />
<text x="199" y="297" style="font-size:10px;padding:30px;text-anchor: start;" >Match</text>
<rect x="199" y="312" width="75" height="6" style="fill: rgb(158,60,126);stroke: #fff;" />
<text x="199" y="322" style="font-size:10px;padding:30px;text-anchor: start;" >Maximum</text>
<rect x="199" y="318" width="75" height="96" style="fill: rgb(158,60,216);stroke: #fff;" />
<text x="199" y="328" style="font-size:10px;padding:30px;text-anchor: start;" >methods</text>
<rect x="199" y="318" width="3" height="96" style="fill: rgb(253,251,249);stroke: #fff;" />
<text x="199" y="328" style="font-size:10px;padding:30px;text-anchor: start;" >add</text>
<rect x="202" y="318" width="2" height="96" style="fill: rgb(253,251,247);stroke: #fff;" />
<text x="202" y="328" style="font-size:10px;padding:30px;text-anchor: start;" >and</text>
<rect x="204" y="318" width="2" height="96" style="fill: rgb(253,251,247);stroke: #fff;" />
<text x="204" y="328" style="font-size:10px;padding:30px;text-anchor: start;" >average</text>
<rect x="205" y="318" width="1" height="96" style="fill: rgb(253,251,247);stroke: #fff;" />
<text x="205" y="328" style="font-size:10px;padding:30px;text-anchor: start;" >count</text>
<rect x="207" y="318" width="2" height="96" style="fill: rgb(253,251,247);stroke: #fff;" />
<text x="207" y="328" style="font-size:10px;padding:30px;text-anchor: start;" >distinct</text>
<rect x="208" y="318" width="3" height="96" style="fill: rgb(253,251,249);stroke: #fff;" />
<text x="208" y="328" style="font-size:10px;padding:30px;text-anchor: start;" >div</text>
<rect x="211" y="318" width="3" height="96" style="fill: rgb(253,251,249);stroke: #fff;" />
<text x="211" y="328" style="font-size:10px;padding:30px;text-anchor: start;" >eq</text>
<rect x="215" y="318" width="2" height="96" style="fill: rgb(253,251,248);stroke: #fff;" />
<text x="215" y="328" style="font-size:10px;padding:30px;text-anchor: start;" >fn</text>
<rect x="217" y="318" width="3" height="96" style="fill: rgb(253,251,249);stroke: #fff;" />
<text x="217" y="328" style="font-size:10px;padding:30px;text-anchor: start;" >gt</text>
<rect x="220" y="318" width="3" height="96" style="fill: rgb(253,251,249);stroke: #fff;" />
<text x="220" y="328" style="font-size:10px;padding:30px;text-anchor: start;" >gte</text>
<rect x="223" y="318" width="4" height="96" style="fill: rgb(253,251,249);stroke: #fff;" />
<text x="223" y="328" style="font-size:10px;padding:30px;text-anchor: start;" >iff</text>
<rect x="227" y="318" width="2" height="96" style="fill: rgb(253,251,248);stroke: #fff;" />
<text x="227" y="328" style="font-size:10px;padding:30px;text-anchor: start;" >isa</text>
<rect x="230" y="318" width="3" height="96" style="fill: rgb(253,251,249);stroke: #fff;" />
<text x="230" y="328" style="font-size:10px;padding:30px;text-anchor: start;" >lt</text>
<rect x="233" y="318" width="3" height="96" style="fill: rgb(253,251,249);stroke: #fff;" />
<text x="233" y="328" style="font-size:10px;padding:30px;text-anchor: start;" >lte</text>
<rect x="236" y="318" width="1" height="96" style="fill: rgb(253,251,247);stroke: #fff;" />
<text x="236" y="328" style="font-size:10px;padding:30px;text-anchor: start;" >max</text>
<rect x="238" y="318" width="1" height="96" style="fill: rgb(253,251,247);stroke: #fff;" />
<text x="238" y="328" style="font-size:10px;padding:30px;text-anchor: start;" >min</text>
<rect x="239" y="318" width="3" height="96" style="fill: rgb(253,251,249);stroke: #fff;" />
<text x="239" y="328" style="font-size:10px;padding:30px;text-anchor: start;" >mod</text>
<rect x="242" y="318" width="3" height="96" style="fill: rgb(253,251,249);stroke: #fff;" />
<text x="242" y="328" style="font-size:10px;padding:30px;text-anchor: start;" >mul</text>
<rect x="245" y="318" width="3" height="96" style="fill: rgb(253,251,249);stroke: #fff;" />
<text x="245" y="328" style="font-size:10px;padding:30px;text-anchor: start;" >neq</text>
<rect x="248" y="318" width="2" height="96" style="fill: rgb(253,251,248);stroke: #fff;" />
<text x="248" y="328" style="font-size:10px;padding:30px;text-anchor: start;" >not</text>
<rect x="250" y="318" width="2" height="96" style="fill: rgb(253,251,247);stroke: #fff;" />
<text x="250" y="328" style="font-size:10px;padding:30px;text-anchor: start;" >or</text>
<rect x="252" y="318" width="2" height="96" style="fill: rgb(253,251,247);stroke: #fff;" />
<text x="252" y="328" style="font-size:10px;padding:30px;text-anchor: start;" >orderby</text>
<rect x="254" y="318" width="4" height="96" style="fill: rgb(253,251,250);stroke: #fff;" />
<text x="254" y="328" style="font-size:10px;padding:30px;text-anchor: start;" >range</text>
<rect x="258" y="318" width="2" height="96" style="fill: rgb(253,251,247);stroke: #fff;" />
<text x="258" y="328" style="font-size:10px;padding:30px;text-anchor: start;" >select</text>
<rect x="259" y="318" width="2" height="96" style="fill: rgb(253,251,247);stroke: #fff;" />
<text x="259" y="328" style="font-size:10px;padding:30px;text-anchor: start;" >stddev</text>
<rect x="261" y="318" width="3" height="96" style="fill: rgb(253,251,249);stroke: #fff;" />
<text x="261" y="328" style="font-size:10px;padding:30px;text-anchor: start;" >sub</text>
<rect x="264" y="318" width="1" height="96" style="fill: rgb(253,251,247);stroke: #fff;" />
<text x="264" y="328" style="font-size:10px;padding:30px;text-anchor: start;" >sum</text>
<rect x="266" y="318" width="2" height="96" style="fill: rgb(253,251,247);stroke: #fff;" />
<text x="266" y="328" style="font-size:10px;padding:30px;text-anchor: start;" >update</text>
<rect x="267" y="318" width="2" height="96" style="fill: rgb(253,251,247);stroke: #fff;" />
<text x="267" y="328" style="font-size:10px;padding:30px;text-anchor: start;" >variance</text>
<rect x="269" y="318" width="2" height="96" style="fill: rgb(253,251,247);stroke: #fff;" />
<text x="269" y="328" style="font-size:10px;padding:30px;text-anchor: start;" >where</text>
<rect x="271" y="318" width="2" height="96" style="fill: rgb(253,251,247);stroke: #fff;" />
<text x="271" y="328" style="font-size:10px;padding:30px;text-anchor: start;" >xor</text>
<rect x="273" y="318" width="1" height="96" style="fill: rgb(253,251,247);stroke: #fff;" />
<text x="273" y="328" style="font-size:10px;padding:30px;text-anchor: start;" >_</text>
<rect x="199" y="414" width="75" height="6" style="fill: rgb(158,60,126);stroke: #fff;" />
<text x="199" y="424" style="font-size:10px;padding:30px;text-anchor: start;" >Minimum</text>
<rect x="199" y="419" width="75" height="10" style="fill: rgb(158,60,131);stroke: #fff;" />
<text x="199" y="429" style="font-size:10px;padding:30px;text-anchor: start;" >Not</text>
<rect x="199" y="430" width="75" height="6" style="fill: rgb(158,60,127);stroke: #fff;" />
<text x="199" y="440" style="font-size:10px;padding:30px;text-anchor: start;" >Or</text>
<rect x="199" y="436" width="75" height="93" style="fill: rgb(158,60,213);stroke: #fff;" />
<text x="199" y="446" style="font-size:10px;padding:30px;text-anchor: start;" >Query</text>
<rect x="199" y="529" width="75" height="11" style="fill: rgb(158,60,131);stroke: #fff;" />
<text x="199" y="539" style="font-size:10px;padding:30px;text-anchor: start;" >Range</text>
<rect x="199" y="540" width="75" height="28" style="fill: rgb(158,60,148);stroke: #fff;" />
<text x="199" y="550" style="font-size:10px;padding:30px;text-anchor: start;" >StringUtil</text>
<rect x="199" y="567" width="75" height="5" style="fill: rgb(158,60,126);stroke: #fff;" />
<text x="199" y="577" style="font-size:10px;padding:30px;text-anchor: start;" >Sum</text>
<rect x="199" y="573" width="75" height="8" style="fill: rgb(158,60,128);stroke: #fff;" />
<text x="199" y="583" style="font-size:10px;padding:30px;text-anchor: start;" >Variable</text>
<rect x="199" y="580" width="75" height="13" style="fill: rgb(158,60,133);stroke: #fff;" />
<text x="199" y="590" style="font-size:10px;padding:30px;text-anchor: start;" >Variance</text>
<rect x="199" y="593" width="75" height="7" style="fill: rgb(158,60,128);stroke: #fff;" />
<text x="199" y="603" style="font-size:10px;padding:30px;text-anchor: start;" >Xor</text>
<rect x="274" y="0" width="26" height="600" style="fill: rgb(184,112,251);stroke: #fff;" />
<text x="274" y="10" style="font-size:10px;padding:30px;text-anchor: start;" >scale</text>
<rect x="274" y="0" width="26" height="40" style="fill: rgb(143,31,102);stroke: #fff;" />
<text x="274" y="10" style="font-size:10px;padding:30px;text-anchor: start;" >IScaleMap</text>
<rect x="274" y="40" width="26" height="25" style="fill: rgb(143,31,87);stroke: #fff;" />
<text x="274" y="50" style="font-size:10px;padding:30px;text-anchor: start;" >LinearScale</text>
<rect x="274" y="66" width="26" height="60" style="fill: rgb(143,31,122);stroke: #fff;" />
<text x="274" y="76" style="font-size:10px;padding:30px;text-anchor: start;" >LogScale</text>
<rect x="274" y="126" width="26" height="72" style="fill: rgb(143,31,134);stroke: #fff;" />
<text x="274" y="136" style="font-size:10px;padding:30px;text-anchor: start;" >OrdinalScale</text>
<rect x="274" y="198" width="26" height="47" style="fill: rgb(143,31,108);stroke: #fff;" />
<text x="274" y="208" style="font-size:10px;padding:30px;text-anchor: start;" >QuantileScale</text>
<rect x="274" y="245" width="26" height="93" style="fill: rgb(143,31,154);stroke: #fff;" />
<text x="274" y="255" style="font-size:10px;padding:30px;text-anchor: start;" >QuantitativeScale</text>
<rect x="274" y="338" width="26" height="34" style="fill: rgb(143,31,95);stroke: #fff;" />
<text x="274" y="348" style="font-size:10px;padding:30px;text-anchor: start;" >RootScale</text>
<rect x="274" y="371" width="26" height="82" style="fill: rgb(143,31,143);stroke: #fff;" />
<text x="274" y="381" style="font-size:10px;padding:30px;text-anchor: start;" >Scale</text>
<rect x="274" y="453" width="26" height="35" style="fill: rgb(143,31,96);stroke: #fff;" />
<text x="274" y="463" style="font-size:10px;padding:30px;text-anchor: start;" >ScaleType</text>
<rect x="274" y="488" width="26" height="112" style="fill: rgb(143,31,173);stroke: #fff;" />
<text x="274" y="498" style="font-size:10px;padding:30px;text-anchor: start;" >TimeScale</text>
<rect x="300" y="0" width="138" height="600" style="fill: rgb(184,112,107);stroke: #fff;" />
<text x="300" y="10" style="font-size:10px;padding:30px;text-anchor: start;" >util</text>
<rect x="300" y="0" width="138" height="30" style="fill: rgb(73,146,67);stroke: #fff;" />
<text x="300" y="10" style="font-size:10px;padding:30px;text-anchor: start;" >Arrays</text>
<rect x="300" y="30" width="138" height="36" style="fill: rgb(73,146,73);stroke: #fff;" />
<text x="300" y="40" style="font-size:10px;padding:30px;text-anchor: start;" >Colors</text>
<rect x="300" y="66" width="138" height="30" style="fill: rgb(73,146,66);stroke: #fff;" />
<text x="300" y="76" style="font-size:10px;padding:30px;text-anchor: start;" >Dates</text>
<rect x="300" y="96" width="138" height="46" style="fill: rgb(73,146,82);stroke: #fff;" />
<text x="300" y="106" style="font-size:10px;padding:30px;text-anchor: start;" >Displays</text>
<rect x="300" y="142" width="138" height="8" style="fill: rgb(73,146,45);stroke: #fff;" />
<text x="300" y="152" style="font-size:10px;padding:30px;text-anchor: start;" >Filter</text>
<rect x="300" y="150" width="138" height="40" style="fill: rgb(73,146,76);stroke: #fff;" />
<text x="300" y="160" style="font-size:10px;padding:30px;text-anchor: start;" >Geometry</text>
<rect x="300" y="190" width="138" height="38" style="fill: rgb(73,146,75);stroke: #fff;" />
<text x="300" y="200" style="font-size:10px;padding:30px;text-anchor: start;" >heap</text>
<rect x="300" y="190" width="122" height="38" style="fill: rgb(86,173,212);stroke: #fff;" />
<text x="300" y="200" style="font-size:10px;padding:30px;text-anchor: start;" >FibonacciHeap</text>
<rect x="422" y="190" width="16" height="38" style="fill: rgb(86,173,107);stroke: #fff;" />
<text x="422" y="200" style="font-size:10px;padding:30px;text-anchor: start;" >HeapNode</text>
<rect x="300" y="229" width="138" height="1" style="fill: rgb(73,146,38);stroke: #fff;" />
<text x="300" y="239" style="font-size:10px;padding:30px;text-anchor: start;" >IEvaluable</text>
<rect x="300" y="230" width="138" height="1" style="fill: rgb(73,146,38);stroke: #fff;" />
<text x="300" y="240" style="font-size:10px;padding:30px;text-anchor: start;" >IPredicate</text>
<rect x="300" y="231" width="138" height="3" style="fill: rgb(73,146,40);stroke: #fff;" />
<text x="300" y="241" style="font-size:10px;padding:30px;text-anchor: start;" >IValueProxy</text>
<rect x="300" y="234" width="138" height="34" style="fill: rgb(73,146,70);stroke: #fff;" />
<text x="300" y="244" style="font-size:10px;padding:30px;text-anchor: start;" >math</text>
<rect x="300" y="234" width="47" height="34" style="fill: rgb(32,65,176);stroke: #fff;" />
<text x="300" y="244" style="font-size:10px;padding:30px;text-anchor: start;" >DenseMatrix</text>
<rect x="347" y="234" width="42" height="34" style="fill: rgb(32,65,171);stroke: #fff;" />
<text x="347" y="244" style="font-size:10px;padding:30px;text-anchor: start;" >IMatrix</text>
<rect x="388" y="234" width="50" height="34" style="fill: rgb(32,65,179);stroke: #fff;" />
<text x="388" y="244" style="font-size:10px;padding:30px;text-anchor: start;" >SparseMatrix</text>
<rect x="300" y="268" width="138" height="64" style="fill: rgb(73,146,101);stroke: #fff;" />
<text x="300" y="278" style="font-size:10px;padding:30px;text-anchor: start;" >Maths</text>
<rect x="300" y="333" width="138" height="5" style="fill: rgb(73,146,42);stroke: #fff;" />
<text x="300" y="343" style="font-size:10px;padding:30px;text-anchor: start;" >Orientation</text>
<rect x="300" y="338" width="138" height="43" style="fill: rgb(73,146,80);stroke: #fff;" />
<text x="300" y="348" style="font-size:10px;padding:30px;text-anchor: start;" >palette</text>
<rect x="300" y="338" width="74" height="43" style="fill: rgb(170,85,243);stroke: #fff;" />
<text x="300" y="348" style="font-size:10px;padding:30px;text-anchor: start;" >ColorPalette</text>
<rect x="374" y="338" width="14" height="43" style="fill: rgb(170,85,184);stroke: #fff;" />
<text x="374" y="348" style="font-size:10px;padding:30px;text-anchor: start;" >Palette</text>
<rect x="388" y="338" width="24" height="43" style="fill: rgb(170,85,193);stroke: #fff;" />
<text x="388" y="348" style="font-size:10px;padding:30px;text-anchor: start;" >ShapePalette</text>
<rect x="412" y="338" width="26" height="43" style="fill: rgb(170,85,196);stroke: #fff;" />
<text x="412" y="348" style="font-size:10px;padding:30px;text-anchor: start;" >SizePalette</text>
<rect x="300" y="381" width="138" height="20" style="fill: rgb(73,146,57);stroke: #fff;" />
<text x="300" y="391" style="font-size:10px;padding:30px;text-anchor: start;" >Property</text>
<rect x="300" y="402" width="138" height="69" style="fill: rgb(73,146,106);stroke: #fff;" />
<text x="300" y="412" style="font-size:10px;padding:30px;text-anchor: start;" >Shapes</text>
<rect x="300" y="471" width="138" height="25" style="fill: rgb(73,146,62);stroke: #fff;" />
<text x="300" y="481" style="font-size:10px;padding:30px;text-anchor: start;" >Sort</text>
<rect x="300" y="496" width="138" height="24" style="fill: rgb(73,146,60);stroke: #fff;" />
<text x="300" y="506" style="font-size:10px;padding:30px;text-anchor: start;" >Stats</text>
<rect x="300" y="520" width="138" height="80" style="fill: rgb(73,146,117);stroke: #fff;" />
<text x="300" y="530" style="font-size:10px;padding:30px;text-anchor: start;" >Strings</text>
<rect x="438" y="0" width="362" height="600" style="fill: rgb(184,112,74);stroke: #fff;" />
<text x="438" y="10" style="font-size:10px;padding:30px;text-anchor: start;" >vis</text>
<rect x="438" y="0" width="362" height="47" style="fill: rgb(125,250,35);stroke: #fff;" />
<text x="438" y="10" style="font-size:10px;padding:30px;text-anchor: start;" >axis</text>
<rect x="438" y="0" width="14" height="47" style="fill: rgb(23,47,107);stroke: #fff;" />
<text x="438" y="10" style="font-size:10px;padding:30px;text-anchor: start;" >Axes</text>
<rect x="452" y="0" width="263" height="47" style="fill: rgb(23,47,100);stroke: #fff;" />
<text x="452" y="10" style="font-size:10px;padding:30px;text-anchor: start;" >Axis</text>
<rect x="715" y="0" width="7" height="47" style="fill: rgb(23,47,100);stroke: #fff;" />
<text x="715" y="10" style="font-size:10px;padding:30px;text-anchor: start;" >AxisGridLine</text>
<rect x="722" y="0" width="7" height="47" style="fill: rgb(23,47,100);stroke: #fff;" />
<text x="722" y="10" style="font-size:10px;padding:30px;text-anchor: start;" >AxisLabel</text>
<rect x="728" y="0" width="72" height="47" style="fill: rgb(23,47,165);stroke: #fff;" />
<text x="728" y="10" style="font-size:10px;padding:30px;text-anchor: start;" >CartesianAxes</text>
<rect x="438" y="47" width="362" height="62" style="fill: rgb(125,250,50);stroke: #fff;" />
<text x="438" y="57" style="font-size:10px;padding:30px;text-anchor: start;" >controls</text>
<rect x="438" y="47" width="17" height="62" style="fill: rgb(151,47,112);stroke: #fff;" />
<text x="438" y="57" style="font-size:10px;padding:30px;text-anchor: start;" >AnchorControl</text>
<rect x="455" y="47" width="31" height="62" style="fill: rgb(151,47,126);stroke: #fff;" />
<text x="455" y="57" style="font-size:10px;padding:30px;text-anchor: start;" >ClickControl</text>
<rect x="486" y="47" width="11" height="62" style="fill: rgb(151,47,105);stroke: #fff;" />
<text x="486" y="57" style="font-size:10px;padding:30px;text-anchor: start;" >Control</text>
<rect x="497" y="47" width="38" height="62" style="fill: rgb(151,47,132);stroke: #fff;" />
<text x="497" y="57" style="font-size:10px;padding:30px;text-anchor: start;" >ControlList</text>
<rect x="535" y="47" width="21" height="62" style="fill: rgb(151,47,116);stroke: #fff;" />
<text x="535" y="57" style="font-size:10px;padding:30px;text-anchor: start;" >DragControl</text>
<rect x="557" y="47" width="23" height="62" style="fill: rgb(151,47,117);stroke: #fff;" />
<text x="557" y="57" style="font-size:10px;padding:30px;text-anchor: start;" >ExpandControl</text>
<rect x="580" y="47" width="40" height="62" style="fill: rgb(151,47,134);stroke: #fff;" />
<text x="580" y="57" style="font-size:10px;padding:30px;text-anchor: start;" >HoverControl</text>
<rect x="619" y="47" width="6" height="62" style="fill: rgb(151,47,101);stroke: #fff;" />
<text x="619" y="57" style="font-size:10px;padding:30px;text-anchor: start;" >IControl</text>
<rect x="625" y="47" width="42" height="62" style="fill: rgb(151,47,137);stroke: #fff;" />
<text x="625" y="57" style="font-size:10px;padding:30px;text-anchor: start;" >PanZoomControl</text>
<rect x="668" y="47" width="64" height="62" style="fill: rgb(151,47,158);stroke: #fff;" />
<text x="668" y="57" style="font-size:10px;padding:30px;text-anchor: start;" >SelectionControl</text>
<rect x="732" y="47" width="68" height="62" style="fill: rgb(151,47,163);stroke: #fff;" />
<text x="732" y="57" style="font-size:10px;padding:30px;text-anchor: start;" >TooltipControl</text>
<rect x="438" y="109" width="362" height="153" style="fill: rgb(125,250,142);stroke: #fff;" />
<text x="438" y="119" style="font-size:10px;padding:30px;text-anchor: start;" >data</text>
<rect x="438" y="109" width="67" height="153" style="fill: rgb(253,251,58);stroke: #fff;" />
<text x="438" y="119" style="font-size:10px;padding:30px;text-anchor: start;" >Data</text>
<rect x="505" y="109" width="65" height="153" style="fill: rgb(253,251,55);stroke: #fff;" />
<text x="505" y="119" style="font-size:10px;padding:30px;text-anchor: start;" >DataList</text>
<rect x="570" y="109" width="34" height="153" style="fill: rgb(253,251,24);stroke: #fff;" />
<text x="570" y="119" style="font-size:10px;padding:30px;text-anchor: start;" >DataSprite</text>
<rect x="604" y="109" width="11" height="153" style="fill: rgb(253,251,1);stroke: #fff;" />
<text x="604" y="119" style="font-size:10px;padding:30px;text-anchor: start;" >EdgeSprite</text>
<rect x="615" y="109" width="63" height="153" style="fill: rgb(253,251,54);stroke: #fff;" />
<text x="615" y="119" style="font-size:10px;padding:30px;text-anchor: start;" >NodeSprite</text>
<rect x="678" y="109" width="29" height="153" style="fill: rgb(253,251,20);stroke: #fff;" />
<text x="678" y="119" style="font-size:10px;padding:30px;text-anchor: start;" >render</text>
<rect x="678" y="109" width="29" height="12" style="fill: rgb(168,81,175);stroke: #fff;" />
<text x="678" y="119" style="font-size:10px;padding:30px;text-anchor: start;" >ArrowType</text>
<rect x="678" y="121" width="29" height="96" style="fill: rgb(168,81,3);stroke: #fff;" />
<text x="678" y="131" style="font-size:10px;padding:30px;text-anchor: start;" >EdgeRenderer</text>
<rect x="678" y="217" width="29" height="6" style="fill: rgb(168,81,169);stroke: #fff;" />
<text x="678" y="227" style="font-size:10px;padding:30px;text-anchor: start;" >IRenderer</text>
<rect x="678" y="223" width="29" height="39" style="fill: rgb(168,81,201);stroke: #fff;" />
<text x="678" y="233" style="font-size:10px;padding:30px;text-anchor: start;" >ShapeRenderer</text>
<rect x="707" y="109" width="37" height="153" style="fill: rgb(253,251,27);stroke: #fff;" />
<text x="707" y="119" style="font-size:10px;padding:30px;text-anchor: start;" >ScaleBinding</text>
<rect x="744" y="109" width="23" height="153" style="fill: rgb(253,251,14);stroke: #fff;" />
<text x="744" y="119" style="font-size:10px;padding:30px;text-anchor: start;" >Tree</text>
<rect x="767" y="109" width="33" height="153" style="fill: rgb(253,251,23);stroke: #fff;" />
<text x="767" y="119" style="font-size:10px;padding:30px;text-anchor: start;" >TreeBuilder</text>
<rect x="438" y="262" width="362" height="10" style="fill: rgb(125,250,254);stroke: #fff;" />
<text x="438" y="272" style="font-size:10px;padding:30px;text-anchor: start;" >events</text>
<rect x="438" y="262" width="119" height="10" style="fill: rgb(216,177,218);stroke: #fff;" />
<text x="438" y="272" style="font-size:10px;padding:30px;text-anchor: start;" >DataEvent</text>
<rect x="557" y="262" width="97" height="10" style="fill: rgb(216,177,196);stroke: #fff;" />
<text x="557" y="272" style="font-size:10px;padding:30px;text-anchor: start;" >SelectionEvent</text>
<rect x="654" y="262" width="88" height="10" style="fill: rgb(216,177,186);stroke: #fff;" />
<text x="654" y="272" style="font-size:10px;padding:30px;text-anchor: start;" >TooltipEvent</text>
<rect x="742" y="262" width="58" height="10" style="fill: rgb(216,177,156);stroke: #fff;" />
<text x="742" y="272" style="font-size:10px;padding:30px;text-anchor: start;" >VisualizationEvent</text>
<rect x="438" y="272" width="362" height="50" style="fill: rgb(125,250,38);stroke: #fff;" />
<text x="438" y="282" style="font-size:10px;padding:30px;text-anchor: start;" >legend</text>
<rect x="438" y="272" width="210" height="50" style="fill: rgb(40,81,116);stroke: #fff;" />
<text x="438" y="282" style="font-size:10px;padding:30px;text-anchor: start;" >Legend</text>
<rect x="648" y="272" width="46" height="50" style="fill: rgb(40,81,209);stroke: #fff;" />
<text x="648" y="282" style="font-size:10px;padding:30px;text-anchor: start;" >LegendItem</text>
<rect x="694" y="272" width="106" height="50" style="fill: rgb(40,81,12);stroke: #fff;" />
<text x="694" y="282" style="font-size:10px;padding:30px;text-anchor: start;" >LegendRange</text>
<rect x="438" y="322" width="362" height="255" style="fill: rgb(125,250,244);stroke: #fff;" />
<text x="438" y="332" style="font-size:10px;padding:30px;text-anchor: start;" >operator</text>
<rect x="438" y="322" width="28" height="255" style="fill: rgb(167,79,186);stroke: #fff;" />
<text x="438" y="332" style="font-size:10px;padding:30px;text-anchor: start;" >distortion</text>
<rect x="438" y="322" width="28" height="80" style="fill: rgb(226,197,219);stroke: #fff;" />
<text x="438" y="332" style="font-size:10px;padding:30px;text-anchor: start;" >BifocalDistortion</text>
<rect x="438" y="402" width="28" height="113" style="fill: rgb(226,197,252);stroke: #fff;" />
<text x="438" y="412" style="font-size:10px;padding:30px;text-anchor: start;" >Distortion</text>
<rect x="438" y="515" width="28" height="62" style="fill: rgb(226,197,200);stroke: #fff;" />
<text x="438" y="525" style="font-size:10px;padding:30px;text-anchor: start;" >FisheyeDistortion</text>
<rect x="466" y="322" width="29" height="255" style="fill: rgb(167,79,188);stroke: #fff;" />
<text x="466" y="332" style="font-size:10px;padding:30px;text-anchor: start;" >encoder</text>
<rect x="466" y="322" width="29" height="54" style="fill: rgb(140,24,103);stroke: #fff;" />
<text x="466" y="332" style="font-size:10px;padding:30px;text-anchor: start;" >ColorEncoder</text>
<rect x="466" y="376" width="29" height="69" style="fill: rgb(140,24,118);stroke: #fff;" />
<text x="466" y="386" style="font-size:10px;padding:30px;text-anchor: start;" >Encoder</text>
<rect x="466" y="446" width="29" height="71" style="fill: rgb(140,24,119);stroke: #fff;" />
<text x="466" y="456" style="font-size:10px;padding:30px;text-anchor: start;" >PropertyEncoder</text>
<rect x="466" y="517" width="29" height="29" style="fill: rgb(140,24,77);stroke: #fff;" />
<text x="466" y="527" style="font-size:10px;padding:30px;text-anchor: start;" >ShapeEncoder</text>
<rect x="466" y="546" width="29" height="31" style="fill: rgb(140,24,80);stroke: #fff;" />
<text x="466" y="556" style="font-size:10px;padding:30px;text-anchor: start;" >SizeEncoder</text>
<rect x="495" y="322" width="23" height="255" style="fill: rgb(167,79,182);stroke: #fff;" />
<text x="495" y="332" style="font-size:10px;padding:30px;text-anchor: start;" >filter</text>
<rect x="495" y="322" width="23" height="112" style="fill: rgb(157,58,228);stroke: #fff;" />
<text x="495" y="332" style="font-size:10px;padding:30px;text-anchor: start;" >FisheyeTreeFilter</text>
<rect x="495" y="434" width="23" height="68" style="fill: rgb(157,58,184);stroke: #fff;" />
<text x="495" y="444" style="font-size:10px;padding:30px;text-anchor: start;" >GraphDistanceFilter</text>
<rect x="495" y="502" width="23" height="75" style="fill: rgb(157,58,192);stroke: #fff;" />
<text x="495" y="512" style="font-size:10px;padding:30px;text-anchor: start;" >VisibilityFilter</text>
<rect x="519" y="322" width="3" height="255" style="fill: rgb(167,79,161);stroke: #fff;" />
<text x="519" y="332" style="font-size:10px;padding:30px;text-anchor: start;" >IOperator</text>
<rect x="521" y="322" width="34" height="255" style="fill: rgb(167,79,192);stroke: #fff;" />
<text x="521" y="332" style="font-size:10px;padding:30px;text-anchor: start;" >label</text>
<rect x="521" y="322" width="34" height="149" style="fill: rgb(168,80,53);stroke: #fff;" />
<text x="521" y="332" style="font-size:10px;padding:30px;text-anchor: start;" >Labeler</text>
<rect x="521" y="471" width="34" height="58" style="fill: rgb(168,80,219);stroke: #fff;" />
<text x="521" y="481" style="font-size:10px;padding:30px;text-anchor: start;" >RadialLabeler</text>
<rect x="521" y="529" width="34" height="48" style="fill: rgb(168,80,208);stroke: #fff;" />
<text x="521" y="539" style="font-size:10px;padding:30px;text-anchor: start;" >StackedAreaLabeler</text>
<rect x="555" y="322" width="213" height="255" style="fill: rgb(167,79,115);stroke: #fff;" />
<text x="555" y="332" style="font-size:10px;padding:30px;text-anchor: start;" >layout</text>
<rect x="555" y="322" width="213" height="16" style="fill: rgb(140,25,66);stroke: #fff;" />
<text x="555" y="332" style="font-size:10px;padding:30px;text-anchor: start;" >AxisLayout</text>
<rect x="555" y="338" width="213" height="9" style="fill: rgb(140,25,59);stroke: #fff;" />
<text x="555" y="348" style="font-size:10px;padding:30px;text-anchor: start;" >BundledEdgeRouter</text>
<rect x="555" y="347" width="213" height="22" style="fill: rgb(140,25,72);stroke: #fff;" />
<text x="555" y="357" style="font-size:10px;padding:30px;text-anchor: start;" >CircleLayout</text>
<rect x="555" y="369" width="213" height="28" style="fill: rgb(140,25,79);stroke: #fff;" />
<text x="555" y="379" style="font-size:10px;padding:30px;text-anchor: start;" >CirclePackingLayout</text>
<rect x="555" y="397" width="213" height="11" style="fill: rgb(140,25,62);stroke: #fff;" />
<text x="555" y="407" style="font-size:10px;padding:30px;text-anchor: start;" >DendrogramLayout</text>
<rect x="555" y="408" width="213" height="20" style="fill: rgb(140,25,70);stroke: #fff;" />
<text x="555" y="418" style="font-size:10px;padding:30px;text-anchor: start;" >ForceDirectedLayout</text>
<rect x="555" y="428" width="213" height="11" style="fill: rgb(140,25,62);stroke: #fff;" />
<text x="555" y="438" style="font-size:10px;padding:30px;text-anchor: start;" >IcicleTreeLayout</text>
<rect x="555" y="440" width="213" height="7" style="fill: rgb(140,25,58);stroke: #fff;" />
<text x="555" y="450" style="font-size:10px;padding:30px;text-anchor: start;" >IndentedTreeLayout</text>
<rect x="555" y="447" width="213" height="19" style="fill: rgb(140,25,69);stroke: #fff;" />
<text x="555" y="457" style="font-size:10px;padding:30px;text-anchor: start;" >Layout</text>
<rect x="555" y="466" width="213" height="30" style="fill: rgb(140,25,81);stroke: #fff;" />
<text x="555" y="476" style="font-size:10px;padding:30px;text-anchor: start;" >NodeLinkTreeLayout</text>
<rect x="555" y="496" width="213" height="6" style="fill: rgb(140,25,57);stroke: #fff;" />
<text x="555" y="506" style="font-size:10px;padding:30px;text-anchor: start;" >PieLayout</text>
<rect x="555" y="503" width="213" height="29" style="fill: rgb(140,25,80);stroke: #fff;" />
<text x="555" y="513" style="font-size:10px;padding:30px;text-anchor: start;" >RadialTreeLayout</text>
<rect x="555" y="532" width="213" height="2" style="fill: rgb(140,25,53);stroke: #fff;" />
<text x="555" y="542" style="font-size:10px;padding:30px;text-anchor: start;" >RandomLayout</text>
<rect x="555" y="534" width="213" height="22" style="fill: rgb(140,25,72);stroke: #fff;" />
<text x="555" y="544" style="font-size:10px;padding:30px;text-anchor: start;" >StackedAreaLayout</text>
<rect x="555" y="555" width="213" height="22" style="fill: rgb(140,25,72);stroke: #fff;" />
<text x="555" y="565" style="font-size:10px;padding:30px;text-anchor: start;" >TreeMapLayout</text>
<rect x="767" y="322" width="5" height="255" style="fill: rgb(167,79,163);stroke: #fff;" />
<text x="767" y="332" style="font-size:10px;padding:30px;text-anchor: start;" >Operator</text>
<rect x="772" y="322" width="10" height="255" style="fill: rgb(167,79,169);stroke: #fff;" />
<text x="772" y="332" style="font-size:10px;padding:30px;text-anchor: start;" >OperatorList</text>
<rect x="783" y="322" width="8" height="255" style="fill: rgb(167,79,167);stroke: #fff;" />
<text x="783" y="332" style="font-size:10px;padding:30px;text-anchor: start;" >OperatorSequence</text>
<rect x="791" y="322" width="5" height="255" style="fill: rgb(167,79,164);stroke: #fff;" />
<text x="791" y="332" style="font-size:10px;padding:30px;text-anchor: start;" >OperatorSwitch</text>
<rect x="796" y="322" width="4" height="255" style="fill: rgb(167,79,162);stroke: #fff;" />
<text x="796" y="332" style="font-size:10px;padding:30px;text-anchor: start;" >SortOperator</text>
<rect x="438" y="577" width="362" height="23" style="fill: rgb(125,250,11);stroke: #fff;" />
<text x="438" y="587" style="font-size:10px;padding:30px;text-anchor: start;" >Visualization</text>
</svg>
