<?xml version="1.0"?>
<!-- Generated by SVGo -->
<svg width="800" height="600"
     xmlns="http://www.w3.org/2000/svg"
     xmlns:xlink="http://www.w3.org/1999/xlink">
<rect x="0" y="0" width="41" height="600" style="fill: rgb(184, 112, 9);stroke: #fff;" />
<text x="0" y="10" style="font-size:10px;padding:30px;text-anchor: start;" >analytics</text>
<rect x="0" y="0" width="41" height="187" style="fill: rgb(147, 38, 7);stroke: #fff;" />
<text x="0" y="10" style="font-size:10px;padding:30px;text-anchor: start;" >cluster</text>
<rect x="0" y="187" width="41" height="326" style="fill: rgb(147, 38, 145);stroke: #fff;" />
<text x="0" y="197" style="font-size:10px;padding:30px;text-anchor: start;" >graph</text>
<rect x="0" y="513" width="41" height="87" style="fill: rgb(147, 38, 163);stroke: #fff;" />
<text x="0" y="523" style="font-size:10px;padding:30px;text-anchor: start;" >optimization</text>
<rect x="41" y="0" width="84" height="600" style="fill: rgb(184, 112, 52);stroke: #fff;" />
<text x="41" y="10" style="font-size:10px;padding:30px;text-anchor: start;" >animate</text>
<rect x="41" y="0" width="84" height="102" style="fill: rgb(174, 92, 30);stroke: #fff;" />
<text x="41" y="10" style="font-size:10px;padding:30px;text-anchor: start;" >Easing</text>
<rect x="41" y="102" width="84" height="35" style="fill: rgb(174, 92, 219);stroke: #fff;" />
<text x="41" y="112" style="font-size:10px;padding:30px;text-anchor: start;" >FunctionSequence</text>
<rect x="41" y="137" width="84" height="138" style="fill: rgb(174, 92, 66);stroke: #fff;" />
<text x="41" y="147" style="font-size:10px;padding:30px;text-anchor: start;" >interpolate</text>
<rect x="41" y="276" width="84" height="6" style="fill: rgb(174, 92, 190);stroke: #fff;" />
<text x="41" y="286" style="font-size:10px;padding:30px;text-anchor: start;" >ISchedulable</text>
<rect x="41" y="282" width="84" height="31" style="fill: rgb(174, 92, 215);stroke: #fff;" />
<text x="41" y="292" style="font-size:10px;padding:30px;text-anchor: start;" >Parallel</text>
<rect x="41" y="313" width="84" height="3" style="fill: rgb(174, 92, 186);stroke: #fff;" />
<text x="41" y="323" style="font-size:10px;padding:30px;text-anchor: start;" >Pause</text>
<rect x="41" y="316" width="84" height="34" style="fill: rgb(174, 92, 217);stroke: #fff;" />
<text x="41" y="326" style="font-size:10px;padding:30px;text-anchor: start;" >Scheduler</text>
<rect x="41" y="349" width="84" height="33" style="fill: rgb(174, 92, 217);stroke: #fff;" />
<text x="41" y="359" style="font-size:10px;padding:30px;text-anchor: start;" >Sequence</text>
<rect x="41" y="382" width="84" height="55" style="fill: rgb(174, 92, 239);stroke: #fff;" />
<text x="41" y="392" style="font-size:10px;padding:30px;text-anchor: start;" >Transition</text>
<rect x="41" y="437" width="84" height="120" style="fill: rgb(174, 92, 47);stroke: #fff;" />
<text x="41" y="447" style="font-size:10px;padding:30px;text-anchor: start;" >Transitioner</text>
<rect x="41" y="557" width="84" height="7" style="fill: rgb(174, 92, 190);stroke: #fff;" />
<text x="41" y="567" style="font-size:10px;padding:30px;text-anchor: start;" >TransitionEvent</text>
<rect x="41" y="564" width="84" height="36" style="fill: rgb(174, 92, 220);stroke: #fff;" />
<text x="41" y="574" style="font-size:10px;padding:30px;text-anchor: start;" >Tween</text>
<rect x="124" y="0" width="25" height="600" style="fill: rgb(184, 112, 250);stroke: #fff;" />
<text x="124" y="10" style="font-size:10px;padding:30px;text-anchor: start;" >data</text>
<rect x="124" y="0" width="25" height="364" style="fill: rgb(147, 38, 183);stroke: #fff;" />
<text x="124" y="10" style="font-size:10px;padding:30px;text-anchor: start;" >converters</text>
<rect x="124" y="364" width="25" height="35" style="fill: rgb(147, 38, 110);stroke: #fff;" />
<text x="124" y="374" style="font-size:10px;padding:30px;text-anchor: start;" >DataField</text>
<rect x="124" y="398" width="25" height="43" style="fill: rgb(147, 38, 118);stroke: #fff;" />
<text x="124" y="408" style="font-size:10px;padding:30px;text-anchor: start;" >DataSchema</text>
<rect x="124" y="441" width="25" height="12" style="fill: rgb(147, 38, 87);stroke: #fff;" />
<text x="124" y="451" style="font-size:10px;padding:30px;text-anchor: start;" >DataSet</text>
<rect x="124" y="453" width="25" height="66" style="fill: rgb(147, 38, 141);stroke: #fff;" />
<text x="124" y="463" style="font-size:10px;padding:30px;text-anchor: start;" >DataSource</text>
<rect x="124" y="519" width="25" height="15" style="fill: rgb(147, 38, 91);stroke: #fff;" />
<text x="124" y="529" style="font-size:10px;padding:30px;text-anchor: start;" >DataTable</text>
<rect x="124" y="534" width="25" height="66" style="fill: rgb(147, 38, 141);stroke: #fff;" />
<text x="124" y="544" style="font-size:10px;padding:30px;text-anchor: start;" >DataUtil</text>
<rect x="150" y="0" width="20" height="600" style="fill: rgb(184, 112, 245);stroke: #fff;" />
<text x="150" y="10" style="font-size:10px;padding:30px;text-anchor: start;" >display</text>
<rect x="150" y="0" width="20" height="219" style="fill: rgb(175, 95, 152);stroke: #fff;" />
<text x="150" y="10" style="font-size:10px;padding:30px;text-anchor: start;" >DirtySprite</text>
<rect x="150" y="219" width="20" height="43" style="fill: rgb(175, 95, 232);stroke: #fff;" />
<text x="150" y="229" style="font-size:10px;padding:30px;text-anchor: start;" >LineSprite</text>
<rect x="150" y="261" width="20" height="90" style="fill: rgb(175, 95, 23);stroke: #fff;" />
<text x="150" y="271" style="font-size:10px;padding:30px;text-anchor: start;" >RectSprite</text>
<rect x="150" y="351" width="20" height="249" style="fill: rgb(175, 95, 183);stroke: #fff;" />
<text x="150" y="361" style="font-size:10px;padding:30px;text-anchor: start;" >TextSprite</text>
<rect x="170" y="0" width="3" height="600" style="fill: rgb(184, 112, 228);stroke: #fff;" />
<text x="170" y="10" style="font-size:10px;padding:30px;text-anchor: start;" >flex</text>
<rect x="170" y="0" width="3" height="600" style="fill: rgb(5, 10, 108);stroke: #fff;" />
<text x="170" y="10" style="font-size:10px;padding:30px;text-anchor: start;" >FlareVis</text>
<rect x="174" y="0" width="25" height="600" style="fill: rgb(184, 112, 250);stroke: #fff;" />
<text x="174" y="10" style="font-size:10px;padding:30px;text-anchor: start;" >physics</text>
<rect x="174" y="0" width="25" height="22" style="fill: rgb(59, 119, 3);stroke: #fff;" />
<text x="174" y="10" style="font-size:10px;padding:30px;text-anchor: start;" >DragForce</text>
<rect x="174" y="22" width="25" height="27" style="fill: rgb(59, 119, 8);stroke: #fff;" />
<text x="174" y="32" style="font-size:10px;padding:30px;text-anchor: start;" >GravityForce</text>
<rect x="174" y="48" width="25" height="6" style="fill: rgb(59, 119, 244);stroke: #fff;" />
<text x="174" y="58" style="font-size:10px;padding:30px;text-anchor: start;" >IForce</text>
<rect x="174" y="55" width="25" height="210" style="fill: rgb(59, 119, 192);stroke: #fff;" />
<text x="174" y="65" style="font-size:10px;padding:30px;text-anchor: start;" >NBodyForce</text>
<rect x="174" y="265" width="25" height="57" style="fill: rgb(59, 119, 38);stroke: #fff;" />
<text x="174" y="275" style="font-size:10px;padding:30px;text-anchor: start;" >Particle</text>
<rect x="174" y="322" width="25" height="200" style="fill: rgb(59, 119, 182);stroke: #fff;" />
<text x="174" y="332" style="font-size:10px;padding:30px;text-anchor: start;" >Simulation</text>
<rect x="174" y="522" width="25" height="44" style="fill: rgb(59, 119, 26);stroke: #fff;" />
<text x="174" y="532" style="font-size:10px;padding:30px;text-anchor: start;" >Spring</text>
<rect x="174" y="566" width="25" height="34" style="fill: rgb(59, 119, 15);stroke: #fff;" />
<text x="174" y="576" style="font-size:10px;padding:30px;text-anchor: start;" >SpringForce</text>
<rect x="199" y="0" width="75" height="600" style="fill: rgb(184, 112, 44);stroke: #fff;" />
<text x="199" y="10" style="font-size:10px;padding:30px;text-anchor: start;" >query</text>
<rect x="199" y="0" width="75" height="11" style="fill: rgb(158, 60, 131);stroke: #fff;" />
<text x="199" y="10" style="font-size:10px;padding:30px;text-anchor: start;" >AggregateExpression</text>
<rect x="199" y="11" width="75" height="7" style="fill: rgb(158, 60, 127);stroke: #fff;" />
<text x="199" y="21" style="font-size:10px;padding:30px;text-anchor: start;" >And</text>
<rect x="199" y="18" width="75" height="26" style="fill: rgb(158, 60, 147);stroke: #fff;" />
<text x="199" y="28" style="font-size:10px;padding:30px;text-anchor: start;" >Arithmetic</text>
<rect x="199" y="44" width="75" height="6" style="fill: rgb(158, 60, 126);stroke: #fff;" />
<text x="199" y="54" style="font-size:10px;padding:30px;text-anchor: start;" >Average</text>
<rect x="199" y="50" width="75" height="19" style="fill: rgb(158, 60, 140);stroke: #fff;" />
<text x="199" y="60" style="font-size:10px;padding:30px;text-anchor: start;" >BinaryExpression</text>
<rect x="199" y="69" width="75" height="34" style="fill: rgb(158, 60, 155);stroke: #fff;" />
<text x="199" y="79" style="font-size:10px;padding:30px;text-anchor: start;" >Comparison</text>
<rect x="199" y="103" width="75" height="25" style="fill: rgb(158, 60, 145);stroke: #fff;" />
<text x="199" y="113" style="font-size:10px;padding:30px;text-anchor: start;" >CompositeExpression</text>
<rect x="199" y="128" width="75" height="5" style="fill: rgb(158, 60, 126);stroke: #fff;" />
<text x="199" y="138" style="font-size:10px;padding:30px;text-anchor: start;" >Count</text>
<rect x="199" y="133" width="75" height="28" style="fill: rgb(158, 60, 148);stroke: #fff;" />
<text x="199" y="143" style="font-size:10px;padding:30px;text-anchor: start;" >DateUtil</text>
<rect x="199" y="161" width="75" height="6" style="fill: rgb(158, 60, 127);stroke: #fff;" />
<text x="199" y="171" style="font-size:10px;padding:30px;text-anchor: start;" >Distinct</text>
<rect x="199" y="167" width="75" height="34" style="fill: rgb(158, 60, 155);stroke: #fff;" />
<text x="199" y="177" style="font-size:10px;padding:30px;text-anchor: start;" >Expression</text>
<rect x="199" y="201" width="75" height="24" style="fill: rgb(158, 60, 145);stroke: #fff;" />
<text x="199" y="211" style="font-size:10px;padding:30px;text-anchor: start;" >ExpressionIterator</text>
<rect x="199" y="225" width="75" height="22" style="fill: rgb(158, 60, 142);stroke: #fff;" />
<text x="199" y="235" style="font-size:10px;padding:30px;text-anchor: start;" >Fn</text>
<rect x="199" y="247" width="75" height="18" style="fill: rgb(158, 60, 139);stroke: #fff;" />
<text x="199" y="257" style="font-size:10px;padding:30px;text-anchor: start;" >If</text>
<rect x="199" y="265" width="75" height="14" style="fill: rgb(158, 60, 134);stroke: #fff;" />
<text x="199" y="275" style="font-size:10px;padding:30px;text-anchor: start;" >IsA</text>
<rect x="199" y="279" width="75" height="8" style="fill: rgb(158, 60, 129);stroke: #fff;" />
<text x="199" y="289" style="font-size:10px;padding:30px;text-anchor: start;" >Literal</text>
<rect x="199" y="287" width="75" height="25" style="fill: rgb(158, 60, 146);stroke: #fff;" />
<text x="199" y="297" style="font-size:10px;padding:30px;text-anchor: start;" >Match</text>
<rect x="199" y="312" width="75" height="6" style="fill: rgb(158, 60, 126);stroke: #fff;" />
<text x="199" y="322" style="font-size:10px;padding:30px;text-anchor: start;" >Maximum</text>
<rect x="199" y="318" width="75" height="96" style="fill: rgb(158, 60, 216);stroke: #fff;" />
<text x="199" y="328" style="font-size:10px;padding:30px;text-anchor: start;" >methods</text>
<rect x="199" y="414" width="75" height="6" style="fill: rgb(158, 60, 126);stroke: #fff;" />
<text x="199" y="424" style="font-size:10px;padding:30px;text-anchor: start;" >Minimum</text>
<rect x="199" y="419" width="75" height="10" style="fill: rgb(158, 60, 131);stroke: #fff;" />
<text x="199" y="429" style="font-size:10px;padding:30px;text-anchor: start;" >Not</text>
<rect x="199" y="430" width="75" height="6" style="fill: rgb(158, 60, 127);stroke: #fff;" />
<text x="199" y="440" style="font-size:10px;padding:30px;text-anchor: start;" >Or</text>
<rect x="199" y="436" width="75" height="93" style="fill: rgb(158, 60, 213);stroke: #fff;" />
<text x="199" y="446" style="font-size:10px;padding:30px;text-anchor: start;" >Query</text>
<rect x="199" y="529" width="75" height="11" style="fill: rgb(158, 60, 131);stroke: #fff;" />
<text x="199" y="539" style="font-size:10px;padding:30px;text-anchor: start;" >Range</text>
<rect x="199" y="540" width="75" height="28" style="fill: rgb(158, 60, 148);stroke: #fff;" />
<text x="199" y="550" style="font-size:10px;padding:30px;text-anchor: start;" >StringUtil</text>
<rect x="199" y="567" width="75" height="5" style="fill: rgb(158, 60, 126);stroke: #fff;" />
<text x="199" y="577" style="font-size:10px;padding:30px;text-anchor: start;" >Sum</text>
<rect x="199" y="573" width="75" height="8" style="fill: rgb(158, 60, 128);stroke: #fff;" />
<text x="199" y="583" style="font-size:10px;padding:30px;text-anchor: start;" >Variable</text>
<rect x="199" y="580" width="75" height="13" style="fill: rgb(158, 60, 133);stroke: #fff;" />
<text x="199" y="590" style="font-size:10px;padding:30px;text-anchor: start;" >Variance</text>
<rect x="199" y="593" width="75" height="7" style="fill: rgb(158, 60, 128);stroke: #fff;" />
<text x="199" y="603" style="font-size:10px;padding:30px;text-anchor: start;" >Xor</text>
<rect x="274" y="0" width="26" height="600" style="fill: rgb(184, 112, 251);stroke: #fff;" />
<text x="274" y="10" style="font-size:10px;padding:30px;text-anchor: start;" >scale</text>
<rect x="274" y="0" width="26" height="40" style="fill: rgb(143, 31, 102);stroke: #fff;" />
<text x="274" y="10" style="font-size:10px;padding:30px;text-anchor: start;" >IScaleMap</text>
<rect x="274" y="40" width="26" height="25" style="fill: rgb(143, 31, 87);stroke: #fff;" />
<text x="274" y="50" style="font-size:10px;padding:30px;text-anchor: start;" >LinearScale</text>
<rect x="274" y="66" width="26" height="60" style="fill: rgb(143, 31, 122);stroke: #fff;" />
<text x="274" y="76" style="font-size:10px;padding:30px;text-anchor: start;" >LogScale</text>
<rect x="274" y="126" width="26" height="72" style="fill: rgb(143, 31, 134);stroke: #fff;" />
<text x="274" y="136" style="font-size:10px;padding:30px;text-anchor: start;" >OrdinalScale</text>
<rect x="274" y="198" width="26" height="47" style="fill: rgb(143, 31, 108);stroke: #fff;" />
<text x="274" y="208" style="font-size:10px;padding:30px;text-anchor: start;" >QuantileScale</text>
<rect x="274" y="245" width="26" height="93" style="fill: rgb(143, 31, 154);stroke: #fff;" />
<text x="274" y="255" style="font-size:10px;padding:30px;text-anchor: start;" >QuantitativeScale</text>
<rect x="274" y="338" width="26" height="34" style="fill: rgb(143, 31, 95);stroke: #fff;" />
<text x="274" y="348" style="font-size:10px;padding:30px;text-anchor: start;" >RootScale</text>
<rect x="274" y="371" width="26" height="82" style="fill: rgb(143, 31, 143);stroke: #fff;" />
<text x="274" y="381" style="font-size:10px;padding:30px;text-anchor: start;" >Scale</text>
<rect x="274" y="453" width="26" height="35" style="fill: rgb(143, 31, 96);stroke: #fff;" />
<text x="274" y="463" style="font-size:10px;padding:30px;text-anchor: start;" >ScaleType</text>
<rect x="274" y="488" width="26" height="112" style="fill: rgb(143, 31, 173);stroke: #fff;" />
<text x="274" y="498" style="font-size:10px;padding:30px;text-anchor: start;" >TimeScale</text>
<rect x="300" y="0" width="138" height="600" style="fill: rgb(184, 112, 107);stroke: #fff;" />
<text x="300" y="10" style="font-size:10px;padding:30px;text-anchor: start;" >util</text>
<rect x="300" y="0" width="138" height="30" style="fill: rgb(73, 146, 67);stroke: #fff;" />
<text x="300" y="10" style="font-size:10px;padding:30px;text-anchor: start;" >Arrays</text>
<rect x="300" y="30" width="138" height="36" style="fill: rgb(73, 146, 73);stroke: #fff;" />
<text x="300" y="40" style="font-size:10px;padding:30px;text-anchor: start;" >Colors</text>
<rect x="300" y="66" width="138" height="30" style="fill: rgb(73, 146, 66);stroke: #fff;" />
<text x="300" y="76" style="font-size:10px;padding:30px;text-anchor: start;" >Dates</text>
<rect x="300" y="96" width="138" height="46" style="fill: rgb(73, 146, 82);stroke: #fff;" />
<text x="300" y="106" style="font-size:10px;padding:30px;text-anchor: start;" >Displays</text>
<rect x="300" y="142" width="138" height="8" style="fill: rgb(73, 146, 45);stroke: #fff;" />
<text x="300" y="152" style="font-size:10px;padding:30px;text-anchor: start;" >Filter</text>
<rect x="300" y="150" width="138" height="40" style="fill: rgb(73, 146, 76);stroke: #fff;" />
<text x="300" y="160" style="font-size:10px;padding:30px;text-anchor: start;" >Geometry</text>
<rect x="300" y="190" width="138" height="38" style="fill: rgb(73, 146, 75);stroke: #fff;" />
<text x="300" y="200" style="font-size:10px;padding:30px;text-anchor: start;" >heap</text>
<rect x="300" y="229" width="138" height="1" style="fill: rgb(73, 146, 38);stroke: #fff;" />
<text x="300" y="239" style="font-size:10px;padding:30px;text-anchor: start;" >IEvaluable</text>
<rect x="300" y="230" width="138" height="1" style="fill: rgb(73, 146, 38);stroke: #fff;" />
<text x="300" y="240" style="font-size:10px;padding:30px;text-anchor: start;" >IPredicate</text>
<rect x="300" y="231" width="138" height="3" style="fill: rgb(73, 146, 40);stroke: #fff;" />
<text x="300" y="241" style="font-size:10px;padding:30px;text-anchor: start;" >IValueProxy</text>
<rect x="300" y="234" width="138" height="34" style="fill: rgb(73, 146, 70);stroke: #fff;" />
<text x="300" y="244" style="font-size:10px;padding:30px;text-anchor: start;" >math</text>
<rect x="300" y="268" width="138" height="64" style="fill: rgb(73, 146, 101);stroke: #fff;" />
<text x="300" y="278" style="font-size:10px;padding:30px;text-anchor: start;" >Maths</text>
<rect x="300" y="333" width="138" height="5" style="fill: rgb(73, 146, 42);stroke: #fff;" />
<text x="300" y="343" style="font-size:10px;padding:30px;text-anchor: start;" >Orientation</text>
<rect x="300" y="338" width="138" height="43" style="fill: rgb(73, 146, 80);stroke: #fff;" />
<text x="300" y="348" style="font-size:10px;padding:30px;text-anchor: start;" >palette</text>
<rect x="300" y="381" width="138" height="20" style="fill: rgb(73, 146, 57);stroke: #fff;" />
<text x="300" y="391" style="font-size:10px;padding:30px;text-anchor: start;" >Property</text>
<rect x="300" y="402" width="138" height="69" style="fill: rgb(73, 146, 106);stroke: #fff;" />
<text x="300" y="412" style="font-size:10px;padding:30px;text-anchor: start;" >Shapes</text>
<rect x="300" y="471" width="138" height="25" style="fill: rgb(73, 146, 62);stroke: #fff;" />
<text x="300" y="481" style="font-size:10px;padding:30px;text-anchor: start;" >Sort</text>
<rect x="300" y="496" width="138" height="24" style="fill: rgb(73, 146, 60);stroke: #fff;" />
<text x="300" y="506" style="font-size:10px;padding:30px;text-anchor: start;" >Stats</text>
<rect x="300" y="520" width="138" height="80" style="fill: rgb(73, 146, 117);stroke: #fff;" />
<text x="300" y="530" style="font-size:10px;padding:30px;text-anchor: start;" >Strings</text>
<rect x="438" y="0" width="362" height="600" style="fill: rgb(184, 112, 74);stroke: #fff;" />
<text x="438" y="10" style="font-size:10px;padding:30px;text-anchor: start;" >vis</text>
<rect x="438" y="0" width="362" height="47" style="fill: rgb(125, 250, 35);stroke: #fff;" />
<text x="438" y="10" style="font-size:10px;padding:30px;text-anchor: start;" >axis</text>
<rect x="438" y="47" width="362" height="62" style="fill: rgb(125, 250, 50);stroke: #fff;" />
<text x="438" y="57" style="font-size:10px;padding:30px;text-anchor: start;" >controls</text>
<rect x="438" y="109" width="362" height="153" style="fill: rgb(125, 250, 142);stroke: #fff;" />
<text x="438" y="119" style="font-size:10px;padding:30px;text-anchor: start;" >data</text>
<rect x="438" y="262" width="362" height="10" style="fill: rgb(125, 250, 254);stroke: #fff;" />
<text x="438" y="272" style="font-size:10px;padding:30px;text-anchor: start;" >events</text>
<rect x="438" y="272" width="362" height="50" style="fill: rgb(125, 250, 38);stroke: #fff;" />
<text x="438" y="282" style="font-size:10px;padding:30px;text-anchor: start;" >legend</text>
<rect x="438" y="322" width="362" height="255" style="fill: rgb(125, 250, 244);stroke: #fff;" />
<text x="438" y="332" style="font-size:10px;padding:30px;text-anchor: start;" >operator</text>
<rect x="438" y="577" width="362" height="23" style="fill: rgb(125, 250, 11);stroke: #fff;" />
<text x="438" y="587" style="font-size:10px;padding:30px;text-anchor: start;" >Visualization</text>
</svg>
